<?xml version="1.0" encoding="utf-8"?>
<!-- Generator: Adobe Illustrator 16.0.3, SVG Export Plug-In . SVG Version: 6.00 Build 0)  -->
<!DOCTYPE svg PUBLIC "-//W3C//DTD SVG 1.1//EN" "http://www.w3.org/Graphics/SVG/1.1/DTD/svg11.dtd">
<svg version="1.1" id="Logo" xmlns="http://www.w3.org/2000/svg" xmlns:xlink="http://www.w3.org/1999/xlink" x="0px" y="0px"
	 width="120px" height="120px" viewBox="0 0 1000 1000" enable-background="new 0 0 1000 1000" xml:space="preserve">
<g id="Logo">
	<g>
		<g>
			<g>
				<path fill-rule="evenodd" clip-rule="evenodd" fill="#FFFFFF" d="M503.908,869.737c-2.212,0-4.425,0-6.637,0
					c-1.779-3.062-5.098-4.296-7.897-5.817c-1.587-0.862-3.214-1.758-4.768-2.738c-0.725-0.458-1.36-1.265-2.13-1.408
					c-4.646-0.863-7.39-5.262-11.917-6.314c-0.436-0.101-0.768-0.597-1.182-0.854c-0.978-0.604-1.977-1.174-2.967-1.758
					c-0.667-0.393-1.357-0.75-1.997-1.183c-2.381-1.612-4.745-3.25-7.12-4.871c-0.086-0.059-0.259-0.108-0.324-0.063
					c-1.888,1.275-2.956-0.563-4.167-1.265c-3.407-1.972-6.643-4.237-9.991-6.314c-1.711-1.062-3.538-1.934-5.278-2.952
					c-2.792-1.635-5.411-3.679-8.374-4.881c-2.801-1.137-5.105-2.975-7.518-4.564c-2.729-1.798-6.33-2.219-8.322-5.176
					c-0.175-0.26-0.662-0.47-0.984-0.444c-3.538,0.275-5.127-3.145-8.041-4.238c-2.633-0.988-4.768-3.282-7.164-4.94
					c-0.303-0.21-0.863-0.024-1.298-0.074c-0.572-0.065-1.415,0.022-1.661-0.311c-2.219-2.996-5.971-3.637-8.843-5.652
					c-3.968-2.784-8.134-5.701-13.049-6.979c-0.732-0.19-1.334-0.934-1.962-1.463c-0.538-0.453-1.01-1.354-1.542-1.38
					c-1.888-0.089-3.045-1.344-4.449-2.272c-2.117-1.4-4.184-3.225-6.539-3.831c-3.422-0.883-5.182-4.632-8.926-4.643
					c-0.165-0.001-0.303-0.369-0.498-0.503c-2.358-1.617-4.592-3.488-7.123-4.769c-3.476-1.759-7.242-2.952-9.991-5.697
					c-2.089,1.222-4.017,2.291-5.887,3.453c-12.594,7.831-25.147,15.728-37.77,23.513c-16.814,10.37-33.688,20.644-50.506,31.008
					c-1.703,1.05-3.049,0.941-4.729-0.09c-12.86-7.898-25.776-15.706-38.667-23.555c-21.692-13.206-43.384-26.413-65.066-39.636
					c-16.022-9.771-32.029-19.566-48.043-29.351c0-23.109,0-46.218,0-69.326c0.235-1.543,0.645-3.082,0.678-4.629
					c0.438-19.878-0.748-39.771,0.66-59.644c0.321-4.526,0.236-9.082,0.276-13.625c0.178-20.262,0.367-40.522,0.489-60.784
					c0.124-20.519,0.173-41.039,0.255-61.558c0.103-25.419-0.093-50.836,0.643-76.257c0.621-21.477,0.48-42.978,0.569-64.468
					c0.081-19.418,0.1-38.837-0.054-58.253c-0.03-3.788,1.13-6.335,4.51-8.018c3.073-1.53,6.099-3.171,9.057-4.913
					c27.173-15.998,54.339-32.007,81.48-48.058c17.746-10.495,35.45-21.059,53.159-31.616c1.337-0.797,2.538-1.296,4.081-0.418
					c7.251,4.122,14.57,8.126,21.807,12.272c11.18,6.405,22.292,12.929,33.475,19.33c6.176,3.534,12.471,6.861,18.651,10.388
					c6.383,3.643,12.688,7.421,19.039,11.123c1.183,0.689,2.292,0.651,3.32-0.42c1.903-1.985,5.046-1.985,6.84-4.215
					c0.237-0.294,0.965-0.139,1.4-0.337c0.873-0.399,1.738-0.841,2.539-1.367c2.172-1.424,4.148-3.711,6.496-4.179
					c4.098-0.816,6.752-3.754,10.128-5.559c2.743-1.467,5.576-2.802,8.131-4.762c4.686-3.594,10.822-4.913,15.173-9.166
					c0.167-0.163,0.411-0.31,0.636-0.343c3.633-0.536,6.35-2.7,9.04-4.963c0.622-0.522,1.504-1.024,2.269-1.026
					c1.578-0.005,2.466-0.634,3.137-2.017c0.267-0.549,1.07-0.884,1.687-1.206c1.041-0.543,2.137-0.977,3.191-1.496
					c1.509-0.743,3.158-1.318,4.466-2.329c2.557-1.975,6.088-2.484,8.007-5.433c0.316-0.486,1.271-0.884,1.857-0.802
					c1.706,0.239,2.703-0.587,3.783-1.715c0.814-0.851,2.056-1.275,2.983-2.041c2.123-1.751,5.275-1.902,6.872-4.503
					c0.229-0.373,1.057-0.425,1.625-0.535c1.968-0.382,3.589-1.281,4.83-2.896c0.331-0.431,0.967-1.004,1.368-0.938
					c1.643,0.272,2.324-0.964,3.313-1.778c0.528-0.435,1.171-0.745,1.791-1.052c1.399-0.694,3.043-1.093,4.174-2.084
					c1.716-1.502,4.351-1.598,5.569-3.836c0.18-0.332,1.151-0.192,1.732-0.356c0.696-0.197,1.629-0.285,2.004-0.771
					c2.233-2.891,5.944-3.325,8.692-5.404c2.655-2.009,5.774-3.401,8.685-5.073c1.854-1.065,3.864-1.94,5.51-3.265
					c2.598-2.09,5.162-4.048,8.561-4.67c0.894-0.164,1.676-0.932,2.51-1.423c1.137-0.67,2.355-1.236,3.388-2.04
					c0.993-0.772,3.107-0.854,2.208-3.037c2.458,0,4.917,0,7.375,0c0.887,1.603,1.676,3.272,3.944,3.287
					c0.556,0.004,1.19,0.381,1.647,0.758c3.277,2.713,6.649,5.251,10.82,6.464c1.428,2.403,4.403,2.039,6.389,3.612
					c2.785,2.207,5.66,4.448,9.268,5.311c0.334,0.08,0.809,0.217,0.923,0.465c1.447,3.124,5.271,2.741,7.447,5.262
					c1.967,2.278,5.653,3.024,8.483,4.617c1.895,1.067,3.612,2.445,5.425,3.66c0.604,0.405,1.288,1.086,1.888,1.04
					c3.846-0.301,5.445,4.014,8.981,4.244c2.148,3.047,5.786,3.785,8.721,5.612c3.08,1.917,6.177,3.811,9.306,5.647
					c1.458,0.855,3.012,1.544,4.517,2.32c1.721,0.888,3.963,1.389,5.021,2.784c1.354,1.784,2.903,1.967,4.685,2.139
					c1.598,2.389,1.676,2.226,4.332,3.497c2.693,1.289,5.211,2.944,7.805,4.439c2.811,1.62,5.657,3.18,8.419,4.879
					c2.181,1.342,3.804,3.821,6.893,3.213c0.076-0.015,0.238,0.127,0.273,0.227c1.219,3.391,5.084,3.121,7.369,5.277
					c2.303,2.173,5.887,2.955,8.831,4.496c1.687,0.883,2.627,3.255,5.164,2.479c0.179-0.055,0.575,0.729,0.923,1.069
					c0.612,0.598,1.182,1.313,1.917,1.701c3.592,1.9,7.383,3.43,10.565,6.072c0.592,0.492,1.592,0.627,2.417,0.671
					c1.182,0.063,2.063,0.118,2.386,1.619c0.126,0.586,1.271,0.954,1.966,1.431c11.756-6.84,23.402-13.618,35.05-20.395
					c19.302-11.231,38.612-22.448,57.889-33.723c1.485-0.869,2.629-0.807,4.061,0.056c4.307,2.595,8.684,5.075,13.039,7.587
					c23.583,13.604,47.161,27.216,70.756,40.8c13.931,8.021,27.894,15.986,41.834,23.991c6.598,3.789,13.188,7.59,19.749,11.44
					c1.097,0.643,2.485,1.046,2.544,2.819c0.093,2.805,0.576,5.604,0.578,8.406c0.09,102.861,0.144,205.723,0.203,308.585
					c0,0.983-0.041,1.971,0.045,2.947c0.04,0.44,0.346,0.857,0.531,1.285c0,52.362,0,104.726,0,157.089
					c-1.813,1.236-3.56,2.585-5.449,3.692c-10.158,5.952-20.384,11.793-30.527,17.771c-15.211,8.965-30.35,18.053-45.563,27.015
					c-15.429,9.089-30.916,18.08-46.369,27.132c-6.454,3.781-12.974,7.465-19.271,11.495c-2.011,1.287-3.321,1.31-5.262,0.117
					c-14.631-8.99-29.325-17.877-43.993-26.808c-15.707-9.563-31.414-19.127-47.098-28.728c-1.275-0.781-2.233-1.021-3.655-0.121
					c-2.822,1.785-5.841,3.26-8.765,4.888c-1.682,0.937-3.388,1.844-4.988,2.907c-2.043,1.357-3.815,3.174-6.484,3.346
					c-0.381,0.025-0.932,0.425-1.067,0.779c-0.796,2.091-2.927,1.975-4.469,2.818c-0.597,0.326-1.593,0.54-1.719,0.996
					c-0.436,1.578-1.84,1.398-2.862,1.91c-2.709,1.356-6.104,2.116-7.953,4.228c-2.557,2.916-6.88,2.354-8.952,5.575
					c-2.067-0.646-2.348,1.627-3.663,2.254c-3.14,1.498-6.602,2.658-9.227,4.815c-3.729,3.062-8.779,3.888-12,7.626
					c-0.222,0.257-0.663,0.518-0.966,0.48c-2.107-0.26-3.226,1.511-4.836,2.207c-2.551,1.104-4.694,2.646-6.734,4.456
					c-0.467,0.415-1.3,0.745-1.874,0.637c-0.944-0.179-1.211,0.032-1.537,0.909c-0.196,0.527-1.019,0.874-1.619,1.189
					c-2.748,1.447-5.578,2.752-8.253,4.321c-1.226,0.72-2.364,2.915-3.192,2.744c-3.189-0.656-4.331,2.055-6.397,3.167
					c-2.566,1.381-5.164,2.708-7.683,4.173c-0.905,0.526-1.806,2.111-2.385,1.961c-2.195-0.567-2.908,1.079-4.116,2.093
					c-0.496,0.416-1.184,0.697-1.827,0.825c-1.475,0.292-2.356,1.264-3.488,2.125c-1.962,1.494-4.688,2.009-6.336,4.164
					c-3.857-0.054-5.879,3.826-9.442,4.401c-2.004,3.247-6.272,3.099-8.718,5.864c-1.057,1.195-3.121,1.46-4.656,2.282
					C510.637,865.058,506.813,866.684,503.908,869.737z M708.416,590.146c0.222-0.035,0.443-0.071,0.664-0.106
					c0-1.423,0-2.845,0-4.268c0-66.496,0-132.992,0-199.488c0-0.983-0.058-1.97,0.006-2.949c0.116-1.829-0.798-3.049-2.267-3.906
					c-6.216-3.625-12.442-7.23-18.676-10.824c-7.517-4.333-15.042-8.651-22.567-12.969c-5.04-2.892-10.098-5.755-15.129-8.664
					c-4.852-2.806-9.645-5.715-14.53-8.461c-4.252-2.39-8.561-4.687-12.915-6.885c-2.566-1.295-3.422-4.269-1.404-6.286
					c1.278-1.278,2.827-2.347,4.399-3.259c4.522-2.622,9.149-5.06,13.677-7.672c6.363-3.671,12.653-7.47,19.014-11.146
					c4.855-2.807,9.846-5.387,14.643-8.288c6.549-3.959,13.442-7.292,19.88-11.472c6.308-4.095,13.01-7.579,19.506-11.387
					c4.31-2.526,8.583-5.116,12.829-7.747c1.825-1.129,3.647-1.38,5.544-0.386c2.888,1.512,5.767,3.043,8.595,4.66
					c5.59,3.195,11.237,6.304,16.685,9.729c5.669,3.566,11.435,6.909,17.314,10.127c6.104,3.34,12.359,6.542,17.954,10.783
					c0.383,0.291,0.88,0.429,1.312,0.661c3.219,1.727,6.476,3.388,9.64,5.209c4.137,2.381,8.007,5.331,12.345,7.23
					c5.186,2.271,7.315,5.766,6.707,11.218c-0.082,0.729-0.012,1.474-0.012,2.211c0,49.411,0,98.822,0,148.233
					c0,68.463-0.029,136.925,0.064,205.388c0.007,4.611-1.564,7.714-5.651,9.775c-2.675,1.348-5.196,3.003-7.77,4.549
					c-4.274,2.569-8.483,5.254-12.821,7.713c-3.173,1.798-6.597,3.156-9.753,4.981c-7.086,4.099-14.045,8.414-21.115,12.541
					c-3.472,2.026-7.138,3.721-10.6,5.764c-3.096,1.825-5.932,4.102-9.058,5.868c-10.343,5.844-20.773,11.532-31.145,17.326
					c-1.219,0.681-2.275,1.649-3.738,2.729c2.136,1.586,3.763,3.034,5.604,4.12c8.985,5.298,18.038,10.479,27.046,15.739
					c8.341,4.871,16.655,9.791,24.816,14.592c4.025-2.279,7.779-4.339,11.471-6.506c24.452-14.353,48.896-28.72,73.329-43.103
					c7.297-4.296,14.485-8.784,21.868-12.926c2.575-1.445,3.619-3.006,3.618-6.045c-0.022-44.613,0.053-89.226,0.189-133.838
					c0.072-22.968,0.307-45.936,0.479-68.903c0.066-9.091,0.2-18.181,0.236-27.272c0.179-45.215,0.355-90.43,0.489-135.645
					c0.058-19.789-0.286-39.585,0.202-59.362c0.135-5.441-1.677-7.864-6.125-10.394c-34.562-19.656-68.96-39.598-103.501-59.505
					c-5.718,3.288-11.448,6.58-17.176,9.877c-22.211,12.788-44.419,25.579-66.63,38.366c-17.003,9.788-34.023,19.546-51.009,29.364
					c-19.853,11.475-39.676,23.003-59.514,34.504c-13.166,7.633-26.331,15.268-39.506,22.885
					c-10.833,6.263-21.695,12.475-32.503,18.78c-1.604,0.935-2.929,0.924-4.425-0.074c-2.349-1.567-4.713-3.117-7.132-4.57
					c-19.782-11.881-39.578-23.74-59.37-35.604c-2.173-1.303-4.351-2.599-7.629-4.556c1.358-0.744,2.167-1.089,2.87-1.587
					c3.204-2.27,6.396-4.556,9.556-6.886c3.062-2.257,6.7-4.091,8.955-6.991c2.611-3.359,6.706-3.865,9.505-6.528
					c0.62-0.589,1.429-1.011,1.944-1.672c1.113-1.428,2.367-1.555,3.88-0.775c0.979,0.504,2.01,0.906,2.974,1.435
					c11.079,6.067,22.318,11.871,33.137,18.372c4.062,2.44,6.746,1.841,10.412-0.376c16.758-10.136,34.125-19.255,51.005-30.174
					c-0.809-1.021-1.227-1.944-1.941-2.381c-3.526-2.157-6.989-4.507-10.747-6.173c-4.314-1.913-8.421-4.163-12.505-6.475
					c-1.808-1.024-3.358-2.535-5.214-3.437c-8.86-4.306-17.219-9.464-25.51-14.744c-1.789-1.14-2.899-1.014-4.655,0.159
					c-2.823,1.886-5.72,3.668-8.656,5.375c-6.117,3.556-12.294,7.006-18.417,10.55c-6.524,3.775-12.974,7.68-19.534,11.392
					c-4.54,2.569-9.282,4.784-13.805,7.379c-6.271,3.598-12.411,7.421-18.625,11.118c-4.275,2.544-8.586,5.028-12.869,7.559
					c-3.145,1.858-6.072,4.364-9.458,5.452c-3.449,1.107-6.254,3.22-9.257,4.866c-3.305,1.811-6.716,3.551-9.938,5.583
					c-4.14,2.611-8.52,4.838-12.722,7.354c-3.981,2.383-7.695,5.279-11.846,7.292c-3.601,1.747-6.976,3.833-10.431,5.787
					c-6.474,3.662-12.812,7.563-19.22,11.341c-4.729,2.789-9.458,5.575-14.224,8.299c-4.147,2.37-8.164,5.125-12.579,6.826
					c-3.621,1.394-4.245,3.888-4.6,6.971c-0.07,0.606-0.011,1.228-0.011,1.842c0,75.96,0,151.92,0,227.881
					c0,0.86-0.123,1.744,0.032,2.576c0.431,2.322,1.346,4.239,3.701,5.403c4.69,2.316,9.31,4.788,13.878,7.34
					c3.952,2.207,7.708,4.773,11.707,6.885c3.627,1.915,6.921,4.341,10.641,6.155c5.04,2.459,9.605,5.872,14.506,8.641
					c9.29,5.249,18.666,10.348,28.031,15.463c1.324,0.723,2.788,1.188,4.43,1.874c0.044-0.992,0.101-1.475,0.083-1.954
					c-0.438-11.417-0.312-22.806,1.422-34.136c1.468-9.593,3.802-18.983,6.841-28.176c4.476-13.536,10.423-26.462,17.06-39.06
					c2.629-4.99,5.604-9.796,8.403-14.696c0.867-1.518,1.551-2.816-0.092-4.567c-9.759-10.404-18.37-21.702-26.018-33.757
					c-6.198-9.769-11.897-19.756-15.73-30.729c-3.038-8.693-6.333-17.386-6.486-26.689c-0.191-11.531,0.19-23.073,0.414-34.608
					c0.061-3.167,0.459-6.328,0.674-9.494c0.238-3.51,0.308-7.038,0.691-10.532c0.681-6.199,1.439-12.393,2.366-18.559
					c0.61-4.059,1.57-8.065,2.337-11.914c6.174-0.558,11.883-1.545,17.583-1.495c13.973,0.125,27.96-0.869,41.925,0.593
					c7.041,0.737,14.141,0.9,21.192,1.565c6.074,0.573,12.169,1.205,18.158,2.329c6.949,1.304,13.804,3.124,20.678,4.809
					c13.065,3.202,25.53,7.994,37.042,14.964c6.289,3.807,12.316,8.098,17.108,13.811c2.989,3.563,5.835,7.246,8.767,10.859
					c8.721,10.751,17.454,21.49,26.175,32.242c1.656,2.042,3.683,3.353,6.182,4.366c10.797,4.375,21.595,8.776,32.186,13.623
					c12.667,5.796,24.135,13.642,35.284,21.938c11.73,8.729,20.911,19.646,27.378,32.739c4.343,8.792,8.474,17.697,12.4,26.684
					c2.895,6.623,5.359,13.438,7.91,20.206c1.424,3.778,2.601,7.648,3.948,11.456C706.192,584.329,707.325,587.23,708.416,590.146z
					 M233.125,783.745c8.511-5.017,17.123-10.188,25.829-15.199c12.547-7.223,25.177-14.304,37.743-21.496
					c6.491-3.716,12.896-7.583,19.382-11.307c6.676-3.833,13.418-7.55,20.104-11.364c6.491-3.703,12.936-7.485,19.422-11.195
					c7.965-4.556,15.945-9.086,23.938-13.591c1.212-0.684,1.632-1.447,1.512-2.936c-0.425-5.236-0.61-10.492-0.912-15.739
					c-0.05-0.879-0.225-1.751-0.38-2.912c-4.53,3.434-9.967,4.477-13.66,8.414c-0.208,0.221-0.718,0.125-1.036,0.282
					c-2.671,1.315-5.388,2.552-7.979,4.011c-5.049,2.843-10.025,5.816-15.035,8.73c-0.741,0.431-1.587,0.729-2.23,1.271
					c-3.715,3.13-8.605,4.386-12.212,7.695c-0.397,0.365-1.183,0.271-1.737,0.511c-0.895,0.388-1.782,0.818-2.611,1.331
					c-2.446,1.511-4.812,3.158-7.302,4.592c-5.059,2.913-10.244,5.609-15.259,8.596c-8.749,5.208-17.409,10.563-26.102,15.865
					c-1.835,1.119-3.195,1.007-4.97-0.407c-0.857-0.683-1.727-1.366-2.665-1.925c-6.74-4.014-13.537-7.933-20.241-12.004
					c-6.752-4.1-13.373-8.416-20.142-12.487c-3.76-2.263-7.649-4.328-11.583-6.274c-2.794-1.383-4.878-4.066-8.205-4.441
					c-1.136-2.025-3.307-2.351-5.164-3.259c-2.365-1.156-4.594-2.591-6.873-3.922c-2.713-1.585-5.368-3.275-8.134-4.761
					c-3.449-1.852-5.919-4.5-6.473-8.397c-0.372-2.617-0.107-5.326-0.107-7.995c-0.002-113.815-0.003-227.63,0.002-341.446
					c0-3.68-0.174-7.384,0.197-11.03c0.186-1.823,1.256-3.635,2.219-5.28c1.161-1.983,3.856-2.196,5.241-3.545
					c2.601-2.534,6.162-3.079,8.847-5.396c2.248-1.939,5.375-2.846,8.079-4.275c2.221-1.173,4.439-2.364,6.573-3.684
					c4.136-2.56,8.058-5.515,12.359-7.745c3.982-2.064,7.812-4.392,11.797-6.421c6.367-3.243,11.947-7.899,18.746-10.353
					c0.425-0.154,0.721-0.639,1.111-0.924c1.072-0.785,2.132-1.593,3.251-2.306c2.201-1.401,4.453-2.683,6.794-3.877
					c5.302-2.705,10.309-5.983,15.465-8.979c2.284-1.327,4.639-2.533,7.516-4.094c-18.795-11.537-37.132-22.791-55.248-33.91
					c-6.498,3.765-12.671,7.295-18.801,10.901c-29.724,17.487-59.432,35.003-89.167,52.471c-1.424,0.836-2.196,1.899-2.278,3.491
					c-0.05,0.981-0.027,1.966-0.029,2.949c-0.083,51.003-0.158,102.006-0.249,153.01c-0.158,88.848-0.325,177.694-0.5,266.542
					c-0.003,1.47,0.057,2.989-0.278,4.397c-0.474,1.991,0.029,3.118,1.866,4.164c5.438,3.097,10.753,6.409,16.109,9.647
					c21.008,12.702,41.992,25.447,63.032,38.097C212.577,771.776,222.561,777.535,233.125,783.745z M528.872,542.363
					c-5.277-0.289-11.509,1.984-14.502,5.588c-1.362,1.64-2.75,3.727-2.973,5.738c-0.356,3.222-0.232,6.666,0.526,9.813
					c3.158,13.083,10.349,23.984,19.231,33.846c3.61,4.008,7.453,7.81,11.238,11.658c5.657,5.754,9.915,12.459,13.289,19.725
					c2.887,6.215,5.539,12.539,8.299,18.813c4.092,9.301,8.319,18.545,12.231,27.921c2.419,5.799,5.009,11.603,5.396,18.459
					c2.422-1.68,4.633-3.147,6.771-4.715c2.372-1.738,4.516-3.854,7.05-5.291c3.813-2.161,7.737-4.332,11.888-5.619
					c2.766-0.857,5.066-1.981,7.251-3.594c-0.263-0.521-0.314-0.813-0.486-0.935c-5.405-3.818-10.897-7.519-16.213-11.458
					c-3.826-2.835-7.685-5.716-11.063-9.05c-7.77-7.669-15.101-15.797-21.309-24.786c-5.076-7.349-9.882-14.936-14.179-22.762
					c-6.446-11.739-10.778-24.412-15.014-37.084c-1.239-3.707-2.255-7.492-3.313-11.258
					C531.601,552.428,530.27,547.465,528.872,542.363z M575.933,544.323c23.982,37.253,48.208,74.248,68.393,113.973
					c14.042-7.877,27.86-15.628,42.437-23.804C643.022,611.973,607.183,580.967,575.933,544.323z M466.075,450.24
					c9.564,0,17.892-8.207,17.783-17.284c-0.135-11.249-9.804-17.45-17.258-17.895c-8.51-0.509-18.707,8.159-18.34,17.192
					C448.68,442.613,455.796,450.239,466.075,450.24z"/>
			</g>
		</g>
	</g>
</g>
</svg>
