<?xml version="1.0" encoding="utf-8"?>
<!-- Generator: Adobe Illustrator 16.0.3, SVG Export Plug-In . SVG Version: 6.00 Build 0)  -->
<!DOCTYPE svg PUBLIC "-//W3C//DTD SVG 1.1//EN" "http://www.w3.org/Graphics/SVG/1.1/DTD/svg11.dtd">
<svg version="1.1" id="Capa_1" xmlns="http://www.w3.org/2000/svg" xmlns:xlink="http://www.w3.org/1999/xlink" x="0px" y="0px"
	 width="1000px" height="1000px" viewBox="0 0 1000 1000" enable-background="new 0 0 1000 1000" xml:space="preserve">
<g>
	<path fill="#C6E2F4" d="M972.689,470.262c0,206.908-167.729,374.636-374.633,374.636c-206.908,0-374.637-167.729-374.637-374.636
		c0-206.904,167.729-374.635,374.637-374.635C804.961,95.627,972.689,263.358,972.689,470.262z"/>
	<g>
		<path fill="#3285FF" d="M399.729,866.24c0,0-2.02-171.408,113.738-274.219c52.512-46.631,173.889,13.492,57.414,92.633
			C522.742,717.359,449.379,746.475,399.729,866.24z"/>
		<path fill="none" stroke="#3081F8" stroke-width="1.3664" stroke-miterlimit="10" d="M554.918,624.531
			c0,0-166.87,109.766-157.697,304.756"/>
	</g>
	<path opacity="0.1" d="M720.994,925.783c0,9.967-57.959,18.045-129.461,18.045c-71.496,0-129.462-8.078-129.462-18.045
		c0-9.969,57.966-18.049,129.462-18.049C663.035,907.734,720.994,915.814,720.994,925.783z"/>
	<g>
		<path fill="#2D76E3" d="M361.143,860.295c0,0-5.914-188.008-243.59-280.906C35.63,547.363-83.762,664.172,85.947,712.168
			C156.087,732.002,254.784,737.594,361.143,860.295z"/>
		<path fill="none" stroke="#296ED3" stroke-width="1.7113" stroke-miterlimit="10" d="M81.149,634.406
			c0,0,241.708,64.467,307.907,299.822"/>
	</g>
	<g>
		<path fill="#3087FF" d="M190.205,468.825c15.417,10.29,20.153,30.261,20.153,30.261s-20.257,3.286-35.675-6.999
			c-15.413-10.286-24.436-23.835-20.149-30.258C158.82,455.406,174.792,458.539,190.205,468.825z"/>
		<path fill="#3087FF" d="M225.582,512.869c12.991,5.246,19.568,19.295,19.568,19.295s-14.487,5.553-27.477,0.311
			c-12.993-5.244-21.755-13.883-19.569-19.297C200.285,507.768,212.59,507.627,225.582,512.869z"/>
		<path fill="#3087FF" d="M239.17,496.344c5.379,12.937-0.023,27.482-0.023,27.482s-14.119-6.434-19.498-19.369
			c-5.375-12.937-5.365-25.238,0.027-27.479C225.063,474.738,233.794,483.409,239.17,496.344z"/>
		<path fill="#3087FF" d="M247.339,541.822c16.459,3.824,26.919,19.346,26.919,19.346s-16.231,9.316-32.694,5.492
			c-16.46-3.83-28.509-12.49-26.917-19.346C216.241,540.453,230.879,537.996,247.339,541.822z"/>
		<path fill="#3087FF" d="M276.235,524.672c4.726,16.229-3.685,32.947-3.685,32.947s-16.072-9.59-20.797-25.816
			c-4.723-16.223-3.077-30.974,3.687-32.943C262.199,496.892,271.512,508.447,276.235,524.672z"/>
		<path fill="#3087FF" d="M263.028,575.846c16.901-0.057,30.645,12.643,30.645,12.643s-13.658,12.797-30.555,12.855
			c-16.903,0.059-30.617-5.604-30.646-12.643C232.449,581.66,246.131,575.898,263.028,575.846z"/>
		<path fill="#3087FF" d="M283.767,613.412c18.018-0.838,33.253,12.08,33.253,12.08s-13.972,14.27-31.989,15.104
			c-18.018,0.838-32.905-4.57-33.254-12.076C251.428,621.012,265.752,614.25,283.767,613.412z"/>
		<path fill="#3087FF" d="M302.621,650.986c17.84-2.666,34.312,8.631,34.312,8.631s-12.449,15.619-30.289,18.285
			c-17.839,2.666-33.198-1.201-34.309-8.631C271.225,661.838,284.785,653.652,302.621,650.986z"/>
		<path fill="#3087FF" d="M323.964,693.762c18.033,0.301,32.423,14.154,32.423,14.154s-14.848,13.357-32.88,13.055
			c-18.034-0.301-32.551-6.635-32.424-14.148C291.208,699.307,305.931,693.459,323.964,693.762z"/>
		<path fill="#3087FF" d="M292.475,553.971c-6.666,15.527-0.349,33.145-0.349,33.145s17.12-7.561,23.78-23.09
			c6.662-15.533,6.821-30.373,0.348-33.152C309.784,528.098,299.138,538.438,292.475,553.971z"/>
		<path fill="#3087FF" d="M323.677,591.209c-10.208,14.867-7.267,34.621-7.267,34.621s19.491-4.348,29.705-19.219
			c10.208-14.867,13.462-30.371,7.266-34.625C347.187,567.734,333.887,576.338,323.677,591.209z"/>
		<path fill="#3087FF" d="M345.664,627.039c-11.67,13.75-10.755,33.707-10.755,33.707s19.836-2.346,31.506-16.1
			c11.668-13.752,16.486-28.844,10.755-33.703C371.44,606.08,357.334,613.289,345.664,627.039z"/>
		<path fill="#3087FF" d="M360.35,673.52c-9.253,15.482-5.071,35.012-5.071,35.012s19.182-5.572,28.432-21.053
			c9.252-15.482,11.518-31.16,5.07-35.016C382.328,648.609,369.6,658.035,360.35,673.52z"/>
		<path fill="#3087FF" d="M342.226,738.68c17.584,4.012,28.813,20.533,28.813,20.533s-17.285,10.01-34.869,6
			c-17.583-4.016-30.481-13.209-28.807-20.537C309.031,737.352,324.642,734.664,342.226,738.68z"/>
		<path fill="#3087FF" d="M382.002,726.375c-12.244,13.238-12.181,33.213-12.181,33.213s19.921-1.496,32.164-14.738
			c12.247-13.242,17.7-28.113,12.181-33.213C408.65,706.531,394.25,713.131,382.002,726.375z"/>
		<path fill="#3087FF" d="M353.703,787.479c17.179,5.496,26.957,22.908,26.957,22.908s-18.071,8.506-35.248,3.012
			c-17.18-5.496-29.25-15.756-26.959-22.912S336.524,781.982,353.703,787.479z"/>
		<path fill="#3087FF" d="M394.38,778.598c-13.323,12.156-14.958,32.061-14.958,32.061s19.97,0.201,33.298-11.949
			c13.329-12.154,20.025-26.506,14.964-32.061C422.619,761.098,407.709,766.445,394.38,778.598z"/>
		<path fill="none" stroke="#3087FF" stroke-width="1.2832" stroke-miterlimit="10" d="M191.872,487.528
			c0,0,88.504,47.925,147.541,181.822c59.037,133.895,47.774,260.52,47.774,260.52"/>
	</g>
	<g>
		<path fill="#78B0FF" d="M974.623,639.355c-11.465,5.816-16.373,19.186-16.373,19.186s13.684,3.932,25.152-1.881
			c11.463-5.818,18.797-14.41,16.375-19.186C997.35,632.697,986.09,633.539,974.623,639.355z"/>
		<path fill="#78B0FF" d="M946.623,666.783c-9.383,2.539-15.072,11.678-15.072,11.678s9.525,5.018,18.904,2.477
			c9.383-2.539,16.131-7.771,15.074-11.678C964.471,665.35,956.004,664.24,946.623,666.783z"/>
		<path fill="#78B0FF" d="M938.623,654.277c-4.77,8.467-2.248,18.936-2.248,18.936s10.26-3.268,15.029-11.738
			c4.771-8.469,5.775-16.945,2.248-18.934C950.123,640.553,943.395,645.809,938.623,654.277z"/>
		<path fill="#78B0FF" d="M929.248,684.934c-11.654,1.279-20.139,11.109-20.139,11.109s10.414,7.756,22.068,6.477
			c11.658-1.279,20.674-6.254,20.137-11.111C950.783,686.553,940.9,683.654,929.248,684.934z"/>
		<path fill="#78B0FF" d="M910.754,670.736c-4.594,10.789-0.176,23.002-0.176,23.002s11.861-5.283,16.453-16.068
			c4.596-10.789,4.674-21.088,0.178-23.002C922.713,652.758,915.346,659.951,910.754,670.736z"/>
		<path fill="#78B0FF" d="M915.637,707.078c-11.639-1.43-22.154,6.186-22.154,6.186s8.354,9.939,19.992,11.375
			c11.637,1.434,21.557-1.336,22.152-6.186C936.225,713.604,927.27,708.512,915.637,707.078z"/>
		<path fill="#78B0FF" d="M898.252,731.25c-12.34-2.061-23.902,5.582-23.902,5.582s8.447,10.982,20.793,13.041
			c12.344,2.061,23.045-0.438,23.906-5.58C919.904,739.148,910.596,733.313,898.252,731.25z"/>
		<path fill="#78B0FF" d="M882.166,755.582c-12.068-3.307-24.346,3.119-24.346,3.119s7.291,11.785,19.359,15.092
			s22.967,1.91,24.346-3.119C902.9,765.646,894.236,758.889,882.166,755.582z"/>
		<path fill="#78B0FF" d="M863.941,783.291c-12.451-1.277-23.508,7.078-23.508,7.078s9.127,10.426,21.576,11.705
			c12.449,1.277,22.975-1.887,23.506-7.076C886.047,789.811,876.389,784.57,863.941,783.291z"/>
		<path fill="#78B0FF" d="M897.154,689.584c3.309,11.246-2.49,22.861-2.49,22.861s-11.172-6.619-14.48-17.869
			c-3.311-11.248-2.195-21.484,2.49-22.863C887.361,670.334,893.844,678.332,897.154,689.584z"/>
		<path fill="#78B0FF" d="M872.59,712.662c5.807,11.086,2.152,24.453,2.152,24.453s-13.07-4.605-18.879-15.689
			c-5.807-11.084-6.771-22.029-2.154-24.451C858.328,694.557,866.781,701.578,872.59,712.662z"/>
		<path fill="#78B0FF" d="M854.488,735.537c6.904,10.438,4.631,24.105,4.631,24.105s-13.473-3.252-20.379-13.686
			c-6.902-10.436-8.977-21.229-4.631-24.104C838.457,718.973,847.58,725.1,854.488,735.537z"/>
		<path fill="#78B0FF" d="M840.543,766.348c5.098,11.424,0.609,24.537,0.609,24.537s-12.756-5.418-17.855-16.848
			c-5.098-11.428-5.369-22.412-0.604-24.537C827.451,747.377,835.445,754.918,840.543,766.348z"/>
		<path fill="#78B0FF" d="M847.654,812.73c-12.441,1.314-21.535,11.771-21.535,11.771s11.08,8.32,23.523,7.006
			c12.443-1.316,22.088-6.588,21.541-11.773C870.633,814.549,860.1,811.414,847.654,812.73z"/>
		<path fill="#78B0FF" d="M821.27,800.973c7.344,10.131,5.656,23.889,5.656,23.889s-13.602-2.672-20.947-12.805
			c-7.342-10.135-9.873-20.826-5.654-23.889C804.547,785.109,813.924,790.842,821.27,800.973z"/>
		<path fill="#78B0FF" d="M835.73,845.402c-12.287,2.369-20.459,13.563-20.459,13.563s11.746,7.346,24.033,4.975
			c12.287-2.367,21.449-8.439,20.461-13.561C858.777,845.26,848.014,843.031,835.73,845.402z"/>
		<path fill="#78B0FF" d="M808.436,835.932c8.18,9.471,7.668,23.318,7.668,23.318s-13.779-1.502-21.955-10.975
			c-8.182-9.469-11.617-19.908-7.67-23.32C790.428,821.549,800.256,826.463,808.436,835.932z"/>
		<path fill="none" stroke="#78B0FF" stroke-width="0.8903" stroke-miterlimit="10" d="M971.934,652.1
			c0,0-64.92,25.725-116.623,113.102c-51.705,87.373-54.383,175.533-54.383,175.533"/>
	</g>
	<g>
		<path fill="#2D76E3" d="M779.611,870.344c0,0-66.523-204.123,33.389-370.301c45.32-75.381,212.887-48.911,103.264,89.245
			C870.959,646.387,794.162,708.621,779.611,870.344z"/>
		<path fill="none" stroke="#296ED3" stroke-width="1.7113" stroke-miterlimit="10" d="M874.699,523.396
			c0,0-158.396,193.607-74.51,423.242"/>
	</g>
	<g>
		<path fill="#2D76E3" d="M813.154,906.135c0,0,30.764-98.611,116.256-135.973c38.785-16.949,97.146,40.117,15.654,63.777
			C911.381,843.721,863.916,846.744,813.154,906.135z"/>
		<path fill="none" stroke="#296ED3" stroke-width="0.8234" stroke-miterlimit="10" d="M947.109,796.512
			c0,0-116.078,31.83-147.137,145.291"/>
	</g>
	<g>
		<path fill="#FFB49B" d="M725.502,155.777l-0.453-23.502c-0.074-3.785-1.742-7.349-4.561-9.879
			c-4.561-4.099-10.189-11.403-8.875-13.111c2.43-3.168,10.396,8.41,13.611,6.037c0.957-0.709-4.521-32.358-1.268-32.159
			c2.529,0.157,3.518,17.975,4.65,17.842c1.113-0.132,0.832-29.501,3.156-29.271c2.246,0.223,3.049,26.955,4.596,25.98
			c2.266-1.428-0.066-23.488,3.686-24.554c2.514-0.715,2.135,28.083,3.537,28.583c1.756,0.624,2.516-18.622,4.689-17.861
			c3,1.055-1.527,33.805-1.527,33.805l-5.705,41.589L725.502,155.777z"/>
		<path fill="#FFB49B" d="M384.885,260.51l-15.831-17.376c-2.55-2.799-3.787-6.535-3.481-10.308
			c0.493-6.113-0.445-15.287-2.57-15.626c-3.944-0.628-1.767,13.258-5.734,13.743c-1.183,0.146-18.967-26.601-21.189-24.218
			c-1.731,1.852,9.801,15.47,8.891,16.149c-0.899,0.67-20.893-20.844-22.421-19.08c-1.476,1.705,16.32,21.667,14.526,22.023
			c-2.627,0.521-16.103-17.101-19.56-15.294c-2.313,1.212,17.762,21.857,17.088,23.187c-0.846,1.658-14.631-11.794-15.686-9.745
			c-1.456,2.829,24.352,23.495,24.352,23.495l32.74,26.273L384.885,260.51z"/>
		<g>
			<path fill="#41378C" d="M602.809,200.081c-7.469-30.974-35.287-54.016-68.555-54.016c-2.859,0-5.672,0.178-8.434,0.519
				c-13.07,1.614-26.243,2.118-39.294,0.356c-5.773-0.779-12.215-1.63-18.854-2.496c-31.632-4.131-57.019,26.169-47.03,56.464
				c0.123,0.375,0.252,0.75,0.375,1.122c5.627,16.528,8.307,33.786,8.53,51.246c0.02,1.456,0.082,2.923,0.191,4.397
				c2.418,32.981,28.326,60.354,61.113,64.667c4.205,0.554,8.34,0.723,12.382,0.542c18.891-0.836,37.762,1.753,55.213,9.025
				c7.508,3.13,15.225,5.482,21.422,5.482c38.992,0,70.598-31.607,70.598-70.599C650.467,235.845,630.523,209.611,602.809,200.081z"
				/>
			<path fill="#FFFFFF" d="M767.15,191.709c0,0-10.949,109.252-27.652,141.077c-13.193,25.141-79.314,81.29-79.314,81.29
				c-9.264,9.495-24.691,8.944-33.258-1.185l0,0c-6.166-7.292-7.053-17.685-2.209-25.916c0,0,60.301-65.027,69.254-92.49
				c8.492-26.041-1.357-109.546-1.357-109.546c-0.303-24.27,22.113-42.467,45.803-37.187l0,0
				C758.328,152.19,771.076,171.689,767.15,191.709z"/>
			<path fill="#41378C" d="M686.553,804.629c-12.293-4.086-14.602,4.523-18.725,19.826c-4.121,15.305-4.877,26.885-0.928,27.947
				c3.672,0.992,8.928-4.414,17.746-17.584C695.234,819.002,694.557,807.285,686.553,804.629z"/>
			<path fill="#FFB49B" d="M695.943,789.25l-11.938,16.537c-3.816,5.182-3.67,8.936-1.309,11.262l0,0
				c2.371,2.342,6.166,2.418,8.633,0.178l19.822-16.596L695.943,789.25z"/>
			<path fill="#9B14AA" d="M652.164,506.193c-60.074,23.66-43.463,105.037-15.162,121.826
				c42.086,24.971,126.033,14.486,126.102,20.994c0.289,27.42-72.924,142.516-72.924,142.516c-0.598,1.1-0.494,2.49,0.334,3.426
				c4.271,4.828,7.111,8.029,14.793,12.951c0.904,0.582,2.131,0.088,2.92-0.645c41.014-38.201,124.283-132.564,134.086-173.227
				C858.67,566.188,663.393,501.771,652.164,506.193z"/>
			<path fill="#41378C" d="M357.995,761.518c-5.277-11.826-13.187-7.719-27.264-0.439c-14.079,7.277-23.136,14.531-21.262,18.164
				c1.753,3.383,9.282,3.617,24.956,1.236C353.241,777.627,361.434,769.223,357.995,761.518z"/>
			<path fill="#FFB49B" d="M375.685,758.078l-20.262,2.346c-6.398,0.676-9.072,3.32-9.197,6.629l0,0
				c-0.127,3.334,2.374,6.186,5.694,6.49l25.622,3.439L375.685,758.078z"/>
			<path fill="#BE1EC8" d="M656.053,515.75c-12.307-12.705-70.699-2.613-70.699-2.613c-60.453,22.674-57.41,75.355-50.713,107.572
				c9.959,47.916-5.373,87.904-10.131,92.342c-20.045,18.711-154.397,42.311-154.397,42.311c-1.214,0.301-2.171,1.318-2.304,2.557
				c-0.681,6.412-1.128,10.666,0.42,19.658c0.177,1.057,1.371,1.635,2.441,1.721c55.872,4.508,168.377,14.344,204.236-7.189
				C657.061,722.783,702.814,564.041,656.053,515.75z"/>
			<path fill="#FFFFFF" d="M655.719,538.768c18.846-2.379,34.596-15.584,40.074-33.771c8.215-27.289,19.455-71.814,14.334-97.316
				c-4.771-23.795-23.176-67.947-69.354-67.941c-30.791,0.005-92.949,9.144-88.879,56.401c2.533,29.463,7.58,84.885,30.73,121.979
				c4.336,6.947,10.959,12.219,18.75,14.754C613.412,536.787,633.709,541.547,655.719,538.768z"/>
			<path fill="#FFA587" d="M635.342,365.364L635.342,365.364c-8.924,0-16.158-7.232-16.158-16.155v-53.314h32.314v53.314
				C651.498,358.132,644.262,365.364,635.342,365.364z"/>
			<path fill="#F5876E" d="M648.266,337.39L648.266,337.39c1.092,0,2.17-0.106,3.232-0.279v-41.217h-32.314v6.017
				C619.184,317.972,632.205,337.39,648.266,337.39z"/>
			<path fill="#FFB49B" d="M655.568,326.236L655.568,326.236c-13.209,5.051-37.041-4.142-42.096-17.351
				c0,0-11.018-19.993-10.424-27.267c2.725-33.594,34.771-27.101,46.465-21.878c6.662,2.977,9.926,23.796,11.797,30.85
				C664.941,304.259,661.342,324.026,655.568,326.236z"/>
			<path fill="#FFA587" d="M598.832,300.383c2.26,5.903,8.816,8.882,14.654,6.649l-8.178-21.378
				C599.475,287.887,596.576,294.479,598.832,300.383z"/>
			<path fill="#FFA587" d="M649.514,259.74l-40.314,15.417l3.391,8.87c-4.025,1.8-5.996,6.469-4.383,10.689
				c0.418,1.093,1.043,2.042,1.801,2.835c0.855-0.758,1.613-1.597,2.219-2.527c1.293-1.982,3.244-3.372,5.449-4.231
				c4.822-1.879,8.635-5.275,11.107-9.515c3.441-5.904,9.111-10.381,15.805-11.788c1.41-0.297,2.816-0.708,4.205-1.239
				c1.131-0.434,2.328-1.021,3.371-1.581L649.514,259.74z"/>
			<path fill="#41378C" d="M622.498,205.921c-8.652,3.592-14.889,10.615-17.752,18.874c-2.996,8.653-9.502,15.455-17.27,20.308
				c-0.09,0.057-0.184,0.115-0.273,0.172c-8.576,5.504-13.139,15.929-11.27,25.946c0.25,1.325,0.59,2.6,1.012,3.822
				c1.4,4.047,2.184,8.359,1.645,12.605c-0.252,1.979-0.043,4.02,0.707,5.986c2.621,6.85,10.672,10.137,17.98,7.342
				c3.035-1.161,5.441-3.189,7.047-5.654c1.475-2.26,3.699-3.845,6.211-4.824c5.492-2.141,9.842-6.013,12.658-10.843
				c3.926-6.732,10.387-11.833,18.016-13.435c1.607-0.34,3.207-0.806,4.793-1.413c16.641-6.366,24.828-25.233,17.945-41.8
				C657.512,207.522,637.988,199.488,622.498,205.921z"/>
			<path fill="#FFFFFF" d="M365.698,300.616c0,0,71.947,66.812,104.564,80.753c23.586,10.082,115.207,19.752,115.207,19.752
				c11.615,2.958,23.561-4.742,25.746-16.6l0,0c1.578-8.538-2.422-16.979-9.969-21.046c0,0-81.355-13.148-103.918-26.085
				c-22.823-13.09-75.783-77.157-75.783-77.157c-20.54-19.759-36.68-22.348-53.014-7.099l0,0
				C354.798,265.953,349.242,290.401,365.698,300.616z"/>
		</g>
	</g>
</g>
</svg>
